<?xml version="1.0" encoding="UTF-8" standalone="no"?>
<svg
   xmlns:dc="http://purl.org/dc/elements/1.1/"
   xmlns:cc="http://creativecommons.org/ns#"
   xmlns:rdf="http://www.w3.org/1999/02/22-rdf-syntax-ns#"
   xmlns:svg="http://www.w3.org/2000/svg"
   xmlns="http://www.w3.org/2000/svg"
   viewBox="0 0 1518.0643 74.7575"
   height="74.7575"
   width="1518.0643"
   xml:space="preserve"
   version="1.1"
   id="svg2"><metadata
     id="metadata8"><rdf:RDF><cc:Work
         rdf:about=""><dc:format>image/svg+xml</dc:format><dc:type
           rdf:resource="http://purl.org/dc/dcmitype/StillImage" /><dc:title></dc:title></cc:Work></rdf:RDF></metadata><defs
     id="defs6"><clipPath
       id="clipPath32"
       clipPathUnits="userSpaceOnUse"><path
         id="path34"
         d="M 0,960 1280,960 1280,0 0,0 0,960 Z" /></clipPath><clipPath
       id="clipPath60"
       clipPathUnits="userSpaceOnUse"><path
         id="path62"
         d="M 0,960 1280,960 1280,0 0,0 0,960 Z" /></clipPath><clipPath
       id="clipPath88"
       clipPathUnits="userSpaceOnUse"><path
         id="path90"
         d="M 0,960 1280,960 1280,0 0,0 0,960 Z" /></clipPath><clipPath
       id="clipPath116"
       clipPathUnits="userSpaceOnUse"><path
         id="path118"
         d="M 0,960 1280,960 1280,0 0,0 0,960 Z" /></clipPath><clipPath
       id="clipPath144"
       clipPathUnits="userSpaceOnUse"><path
         id="path146"
         d="M 0,960 1280,960 1280,0 0,0 0,960 Z" /></clipPath><clipPath
       id="clipPath160"
       clipPathUnits="userSpaceOnUse"><path
         id="path162"
         d="M 0,960 1280,960 1280,0 0,0 0,960 Z" /></clipPath><clipPath
       id="clipPath176"
       clipPathUnits="userSpaceOnUse"><path
         id="path178"
         d="M 0,960 1280,960 1280,0 0,0 0,960 Z" /></clipPath><clipPath
       id="clipPath196"
       clipPathUnits="userSpaceOnUse"><path
         id="path198"
         d="M 0,960 1280,960 1280,0 0,0 0,960 Z" /></clipPath><clipPath
       id="clipPath216"
       clipPathUnits="userSpaceOnUse"><path
         id="path218"
         d="M 0,960 1280,960 1280,0 0,0 0,960 Z" /></clipPath><clipPath
       id="clipPath228"
       clipPathUnits="userSpaceOnUse"><path
         id="path230"
         d="M 0,960 1280,960 1280,0 0,0 0,960 Z" /></clipPath><clipPath
       id="clipPath240"
       clipPathUnits="userSpaceOnUse"><path
         id="path242"
         d="M 0,960 1280,960 1280,0 0,0 0,960 Z" /></clipPath><clipPath
       id="clipPath252"
       clipPathUnits="userSpaceOnUse"><path
         id="path254"
         d="M 0,960 1280,960 1280,0 0,0 0,960 Z" /></clipPath><clipPath
       id="clipPath264"
       clipPathUnits="userSpaceOnUse"><path
         id="path266"
         d="M 0,960 1280,960 1280,0 0,0 0,960 Z" /></clipPath><clipPath
       id="clipPath282"
       clipPathUnits="userSpaceOnUse"><path
         id="path284"
         d="M 0,960 1280,960 1280,0 0,0 0,960 Z" /></clipPath><clipPath
       id="clipPath300"
       clipPathUnits="userSpaceOnUse"><path
         id="path302"
         d="M 0,960 1280,960 1280,0 0,0 0,960 Z" /></clipPath></defs><g
     transform="matrix(1.25,0,0,-1.25,-45.759812,102.17575)"
     id="g10"><text
       id="text12"
       style="font-variant:normal;font-weight:600;font-stretch:normal;font-size:45.35430145px;font-family:'Raleway SemiBold';-inkscape-font-specification:Raleway-SemiBold;writing-mode:lr-tb;fill:#39393a;fill-opacity:1;fill-rule:nonzero;stroke:none"
       transform="matrix(1,0,0,-1,356.583,795.1792)"><tspan
         id="tspan14"
         y="0"
         x="0 25.534472 52.520279 63.72279 77.374435 102.95426 131.43677 142.41251 169.48901 180.69153 207.67734 230.17307 246.8181 258.0206 286.91132 312.49112 339.56766 362.06339 373.2659 386.91754">Le lapin est dans le</tspan><tspan
         id="tspan16"
         y="0"
         x="413.90335"> </tspan></text>
<text
       id="text18"
       style="font-variant:normal;font-weight:600;font-stretch:normal;font-size:82.20469666px;font-family:'Raleway SemiBold';-inkscape-font-specification:Raleway-SemiBold;writing-mode:lr-tb;fill:#2e2e2e;fill-opacity:1;fill-rule:nonzero;stroke:none"
       transform="matrix(1,0,0,-1,468.9678,451.2456)"><tspan
         id="tspan20"
         y="0"
         x="0">T</tspan><tspan
         id="tspan22"
         y="0"
         x="50.638096 100.20753 154.54483 208.88214 231.24182 280.81125">ERRIER</tspan></text>
<text
       id="text24"
       style="font-variant:normal;font-weight:600;font-stretch:normal;font-size:45.35430145px;font-family:'Raleway SemiBold';-inkscape-font-specification:Raleway-SemiBold;writing-mode:lr-tb;fill:#f4ac46;fill-opacity:1;fill-rule:nonzero;stroke:none"
       transform="matrix(1,0,0,-1,781.6772,795.3291)"><tspan
         id="tspan26"
         y="0"
         x="0 16.055422 43.041229 60.003738 76.966248 87.941986 114.9278">terrier</tspan></text>
<g
       id="g28"><g
         clip-path="url(#clipPath32)"
         id="g30"><g
           transform="translate(118.0908,898.8696)"
           id="g36"><path
             id="path38"
             style="fill:#292f36;fill-opacity:1;fill-rule:nonzero;stroke:none"
             d="m 0,0 0,17.986 c 0,6.627 -3.771,12 -8.421,12 l -48.197,0 0.032,0 -1.812,0 c -2.326,0 -4.431,-1.343 -5.955,-3.515 L -64.55,26.186 -76.802,7.633 c -4.952,-7.466 -4.952,-7.682 0,-15 l 12.252,-18.569 0.197,-0.285 c 1.524,-2.172 3.629,-3.515 5.955,-3.515 l 1.812,0 0,-0.083 48.197,0 c 4.65,0 8.421,5.372 8.421,12 l 0,17.986" /></g><g
           transform="translate(86.5,910.1865)"
           id="g40"><path
             id="path42"
             style="fill:none;stroke:#ffffff;stroke-width:5.66900015;stroke-linecap:round;stroke-linejoin:round;stroke-miterlimit:10;stroke-dasharray:none;stroke-opacity:1"
             d="m 0,0 c 8.456,0 15.31,-6.854 15.31,-15.31 0,-8.455 -6.854,-15.309 -15.31,-15.309 -8.456,0 -15.31,6.854 -15.31,15.309" /></g><g
           transform="translate(86.5,910.1865)"
           id="g44"><path
             id="path46"
             style="fill:none;stroke:#ffffff;stroke-width:5.66900015;stroke-linecap:round;stroke-linejoin:round;stroke-miterlimit:10;stroke-dasharray:none;stroke-opacity:1"
             d="M 0,0 -10.877,0" /></g><g
           transform="translate(75.623,910.1865)"
           id="g48"><path
             id="path50"
             style="fill:none;stroke:#ffffff;stroke-width:5.66900015;stroke-linecap:round;stroke-linejoin:round;stroke-miterlimit:10;stroke-dasharray:none;stroke-opacity:1"
             d="M 0,0 9.295,9.296" /></g><g
           transform="translate(75.623,910.1865)"
           id="g52"><path
             id="path54"
             style="fill:none;stroke:#ffffff;stroke-width:5.66900015;stroke-linecap:round;stroke-linejoin:round;stroke-miterlimit:10;stroke-dasharray:none;stroke-opacity:1"
             d="M 0,0 9.138,-9.138" /></g></g></g><g
       id="g56"><g
         clip-path="url(#clipPath60)"
         id="g58"><g
           transform="translate(118.0908,898.8696)"
           id="g64"><path
             id="path66"
             style="fill:#297373;fill-opacity:1;fill-rule:nonzero;stroke:none"
             d="m 0,0 0,17.986 c 0,6.627 -3.771,12 -8.421,12 l -48.197,0 0.032,0 -1.812,0 c -2.326,0 -4.431,-1.343 -5.955,-3.515 L -64.55,26.186 -76.802,7.633 c -4.952,-7.466 -4.952,-7.682 0,-15 l 12.252,-18.569 0.197,-0.285 c 1.524,-2.172 3.629,-3.515 5.955,-3.515 l 1.812,0 0,-0.083 48.197,0 c 4.65,0 8.421,5.372 8.421,12 l 0,17.986" /></g><g
           transform="translate(86.5,910.1865)"
           id="g68"><path
             id="path70"
             style="fill:none;stroke:#ffffff;stroke-width:5.66900015;stroke-linecap:round;stroke-linejoin:round;stroke-miterlimit:10;stroke-dasharray:none;stroke-opacity:1"
             d="m 0,0 c 8.456,0 15.31,-6.854 15.31,-15.31 0,-8.455 -6.854,-15.309 -15.31,-15.309 -8.456,0 -15.31,6.854 -15.31,15.309" /></g><g
           transform="translate(86.5,910.1865)"
           id="g72"><path
             id="path74"
             style="fill:none;stroke:#ffffff;stroke-width:5.66900015;stroke-linecap:round;stroke-linejoin:round;stroke-miterlimit:10;stroke-dasharray:none;stroke-opacity:1"
             d="M 0,0 -10.877,0" /></g><g
           transform="translate(75.623,910.1865)"
           id="g76"><path
             id="path78"
             style="fill:none;stroke:#ffffff;stroke-width:5.66900015;stroke-linecap:round;stroke-linejoin:round;stroke-miterlimit:10;stroke-dasharray:none;stroke-opacity:1"
             d="M 0,0 9.295,9.296" /></g><g
           transform="translate(75.623,910.1865)"
           id="g80"><path
             id="path82"
             style="fill:none;stroke:#ffffff;stroke-width:5.66900015;stroke-linecap:round;stroke-linejoin:round;stroke-miterlimit:10;stroke-dasharray:none;stroke-opacity:1"
             d="M 0,0 9.138,-9.138" /></g></g></g><g
       id="g84"><g
         clip-path="url(#clipPath88)"
         id="g86"><g
           transform="translate(1171.5098,898.9526)"
           id="g92"><path
             id="path94"
             style="fill:#292f36;fill-opacity:1;fill-rule:nonzero;stroke:none"
             d="m 0,0 0,17.986 c 0,6.627 3.77,12 8.42,12 l 48.197,0 -0.031,0 1.812,0 c 2.325,0 4.43,-1.343 5.954,-3.515 l 0.199,-0.285 12.25,-18.553 c 4.953,-7.466 4.953,-7.682 0,-15 l -12.25,-18.569 -0.199,-0.285 c -1.524,-2.172 -3.629,-3.515 -5.954,-3.515 l -1.812,0 0,-0.083 -48.197,0 c -4.651,0 -8.42,5.372 -8.42,12 l 0,17.986" /></g><g
           transform="translate(1185.7344,881.7441)"
           id="g96"><path
             id="path98"
             style="fill:none;stroke:#ffffff;stroke-width:5.66900015;stroke-linecap:round;stroke-linejoin:round;stroke-miterlimit:10;stroke-dasharray:none;stroke-opacity:1"
             d="M 0,0 35.467,0" /></g><g
           transform="translate(1201.1963,881.7441)"
           id="g100"><path
             id="path102"
             style="fill:none;stroke:#ffffff;stroke-width:5.66900015;stroke-linecap:round;stroke-linejoin:round;stroke-miterlimit:10;stroke-dasharray:none;stroke-opacity:1"
             d="M 0,0 0,37.333" /></g><g
           transform="translate(1201.1963,919.0776)"
           id="g104"><path
             id="path106"
             style="fill:none;stroke:#ffffff;stroke-width:5.66900015;stroke-linecap:round;stroke-linejoin:round;stroke-miterlimit:10;stroke-dasharray:none;stroke-opacity:1"
             d="M 0,0 22.071,-10.667" /></g><g
           transform="translate(1223.2676,908.4111)"
           id="g108"><path
             id="path110"
             style="fill:none;stroke:#ffffff;stroke-width:5.66900015;stroke-linecap:round;stroke-linejoin:round;stroke-miterlimit:10;stroke-dasharray:none;stroke-opacity:1"
             d="M 0,0 -22.071,-8" /></g></g></g><g
       id="g112"><g
         clip-path="url(#clipPath116)"
         id="g114"><g
           transform="translate(1171.5098,898.9526)"
           id="g120"><path
             id="path122"
             style="fill:#297373;fill-opacity:1;fill-rule:nonzero;stroke:none"
             d="m 0,0 0,17.986 c 0,6.627 3.77,12 8.42,12 l 48.197,0 -0.031,0 1.812,0 c 2.325,0 4.43,-1.343 5.954,-3.515 l 0.199,-0.285 12.25,-18.553 c 4.953,-7.466 4.953,-7.682 0,-15 l -12.25,-18.569 -0.199,-0.285 c -1.524,-2.172 -3.629,-3.515 -5.954,-3.515 l -1.812,0 0,-0.083 -48.197,0 c -4.651,0 -8.42,5.372 -8.42,12 l 0,17.986" /></g><g
           transform="translate(1185.7344,881.7441)"
           id="g124"><path
             id="path126"
             style="fill:none;stroke:#ffffff;stroke-width:5.66900015;stroke-linecap:round;stroke-linejoin:round;stroke-miterlimit:10;stroke-dasharray:none;stroke-opacity:1"
             d="M 0,0 35.467,0" /></g><g
           transform="translate(1201.1963,881.7441)"
           id="g128"><path
             id="path130"
             style="fill:none;stroke:#ffffff;stroke-width:5.66900015;stroke-linecap:round;stroke-linejoin:round;stroke-miterlimit:10;stroke-dasharray:none;stroke-opacity:1"
             d="M 0,0 0,37.333" /></g><g
           transform="translate(1201.1963,919.0776)"
           id="g132"><path
             id="path134"
             style="fill:none;stroke:#ffffff;stroke-width:5.66900015;stroke-linecap:round;stroke-linejoin:round;stroke-miterlimit:10;stroke-dasharray:none;stroke-opacity:1"
             d="M 0,0 22.071,-10.667" /></g><g
           transform="translate(1223.2676,908.4111)"
           id="g136"><path
             id="path138"
             style="fill:none;stroke:#ffffff;stroke-width:5.66900015;stroke-linecap:round;stroke-linejoin:round;stroke-miterlimit:10;stroke-dasharray:none;stroke-opacity:1"
             d="M 0,0 -22.071,-8" /></g></g></g><g
       id="g140"><g
         clip-path="url(#clipPath144)"
         id="g142"><g
           transform="translate(1171.5098,825.2563)"
           id="g148"><path
             id="path150"
             style="fill:#292f36;fill-opacity:1;fill-rule:nonzero;stroke:none"
             d="m 0,0 0,17.986 c 0,6.627 3.77,12 8.42,12 l 48.197,0 -0.031,0 1.812,0 c 2.325,0 4.43,-1.343 5.954,-3.515 l 0.199,-0.285 12.25,-18.553 c 4.953,-7.466 4.953,-7.682 0,-15 l -12.25,-18.569 -0.199,-0.285 c -1.524,-2.172 -3.629,-3.515 -5.954,-3.515 l -1.812,0 0,-0.083 -48.197,0 c -4.651,0 -8.42,5.372 -8.42,12 l 0,17.986" /></g><g
           transform="translate(1185.7207,825.2612)"
           id="g152"><path
             id="path154"
             style="fill:none;stroke:#ffffff;stroke-width:5.66900015;stroke-linecap:round;stroke-linejoin:round;stroke-miterlimit:10;stroke-dasharray:none;stroke-opacity:1"
             d="M 0,0 13.873,-12.916 37.746,13.239" /></g></g></g><g
       id="g156"><g
         clip-path="url(#clipPath160)"
         id="g158"><g
           transform="translate(1171.5098,825.2563)"
           id="g164"><path
             id="path166"
             style="fill:#297373;fill-opacity:1;fill-rule:nonzero;stroke:none"
             d="m 0,0 0,17.986 c 0,6.627 3.77,12 8.42,12 l 48.197,0 -0.031,0 1.812,0 c 2.325,0 4.43,-1.343 5.954,-3.515 l 0.199,-0.285 12.25,-18.553 c 4.953,-7.466 4.953,-7.682 0,-15 l -12.25,-18.569 -0.199,-0.285 c -1.524,-2.172 -3.629,-3.515 -5.954,-3.515 l -1.812,0 0,-0.083 -48.197,0 c -4.651,0 -8.42,5.372 -8.42,12 l 0,17.986" /></g><g
           transform="translate(1185.7207,825.2612)"
           id="g168"><path
             id="path170"
             style="fill:none;stroke:#ffffff;stroke-width:5.66900015;stroke-linecap:round;stroke-linejoin:round;stroke-miterlimit:10;stroke-dasharray:none;stroke-opacity:1"
             d="M 0,0 13.873,-12.916 37.746,13.239" /></g></g></g><g
       id="g172"><g
         clip-path="url(#clipPath176)"
         id="g174"><g
           transform="translate(118.0908,825.1733)"
           id="g180"><path
             id="path182"
             style="fill:#292f36;fill-opacity:1;fill-rule:nonzero;stroke:none"
             d="m 0,0 0,17.986 c 0,6.627 -3.771,12 -8.421,12 l -48.197,0 0.032,0 -1.812,0 c -2.326,0 -4.431,-1.343 -5.955,-3.515 L -64.55,26.186 -76.802,7.633 c -4.952,-7.466 -4.952,-7.682 0,-15 l 12.252,-18.569 0.197,-0.285 c 1.524,-2.172 3.629,-3.515 5.955,-3.515 l 1.812,0 0,-0.083 48.197,0 c 4.65,0 8.421,5.372 8.421,12 l 0,17.986" /></g><g
           transform="translate(72.4336,840.1191)"
           id="g184"><path
             id="path186"
             style="fill:none;stroke:#ffffff;stroke-width:5.66900015;stroke-linecap:round;stroke-linejoin:round;stroke-miterlimit:10;stroke-dasharray:none;stroke-opacity:1"
             d="M 0,0 27.745,-30.398" /></g><g
           transform="translate(72.4336,809.7207)"
           id="g188"><path
             id="path190"
             style="fill:none;stroke:#ffffff;stroke-width:5.66900015;stroke-linecap:round;stroke-linejoin:round;stroke-miterlimit:10;stroke-dasharray:none;stroke-opacity:1"
             d="M 0,0 27.745,30.398" /></g></g></g><g
       id="g192"><g
         clip-path="url(#clipPath196)"
         id="g194"><g
           transform="translate(118.0908,825.1733)"
           id="g200"><path
             id="path202"
             style="fill:#297373;fill-opacity:1;fill-rule:nonzero;stroke:none"
             d="m 0,0 0,17.986 c 0,6.627 -3.771,12 -8.421,12 l -48.197,0 0.032,0 -1.812,0 c -2.326,0 -4.431,-1.343 -5.955,-3.515 L -64.55,26.186 -76.802,7.633 c -4.952,-7.466 -4.952,-7.682 0,-15 l 12.252,-18.569 0.197,-0.285 c 1.524,-2.172 3.629,-3.515 5.955,-3.515 l 1.812,0 0,-0.083 48.197,0 c 4.65,0 8.421,5.372 8.421,12 l 0,17.986" /></g><g
           transform="translate(72.4336,840.1191)"
           id="g204"><path
             id="path206"
             style="fill:none;stroke:#ffffff;stroke-width:5.66900015;stroke-linecap:round;stroke-linejoin:round;stroke-miterlimit:10;stroke-dasharray:none;stroke-opacity:1"
             d="M 0,0 27.745,-30.398" /></g><g
           transform="translate(72.4336,809.7207)"
           id="g208"><path
             id="path210"
             style="fill:none;stroke:#ffffff;stroke-width:5.66900015;stroke-linecap:round;stroke-linejoin:round;stroke-miterlimit:10;stroke-dasharray:none;stroke-opacity:1"
             d="M 0,0 27.745,30.398" /></g></g></g><g
       id="g212"><g
         clip-path="url(#clipPath216)"
         id="g214"><g
           transform="translate(1171.5098,480.0835)"
           id="g220"><path
             id="path222"
             style="fill:#292f36;fill-opacity:1;fill-rule:nonzero;stroke:none"
             d="m 0,0 0,17.986 c 0,6.627 3.77,12 8.42,12 l 48.197,0 -0.031,0 1.812,0 c 2.325,0 4.43,-1.343 5.954,-3.515 l 0.199,-0.285 12.25,-18.553 c 4.953,-7.466 4.953,-7.682 0,-15 l -12.25,-18.569 -0.199,-0.285 c -1.524,-2.171 -3.629,-3.515 -5.954,-3.515 l -1.812,0 0,-0.084 -48.197,0 c -4.651,0 -8.42,5.373 -8.42,12 l 0,17.987" /></g></g></g><g
       id="g224"><g
         clip-path="url(#clipPath228)"
         id="g226"><g
           transform="translate(1171.5098,480.0835)"
           id="g232"><path
             id="path234"
             style="fill:#f4ac46;fill-opacity:1;fill-rule:nonzero;stroke:none"
             d="m 0,0 0,17.986 c 0,6.627 3.77,12 8.42,12 l 48.197,0 -0.031,0 1.812,0 c 2.325,0 4.43,-1.343 5.954,-3.515 l 0.199,-0.285 12.25,-18.553 c 4.953,-7.466 4.953,-7.682 0,-15 l -12.25,-18.569 -0.199,-0.285 c -1.524,-2.171 -3.629,-3.515 -5.954,-3.515 l -1.812,0 0,-0.084 -48.197,0 c -4.651,0 -8.42,5.373 -8.42,12 l 0,17.987" /></g></g></g><g
       id="g236"><g
         clip-path="url(#clipPath240)"
         id="g238"><g
           transform="translate(118.0908,480.0005)"
           id="g244"><path
             id="path246"
             style="fill:#292f36;fill-opacity:1;fill-rule:nonzero;stroke:none"
             d="m 0,0 0,17.986 c 0,6.627 -3.771,12 -8.421,12 l -48.197,0 0.032,0 -1.812,0 c -2.326,0 -4.431,-1.343 -5.955,-3.515 L -64.55,26.186 -76.802,7.633 c -4.952,-7.466 -4.952,-7.682 0,-15.001 l 12.252,-18.568 0.197,-0.285 c 1.524,-2.172 3.629,-3.515 5.955,-3.515 l 1.812,0 0,-0.083 48.197,0 c 4.65,0 8.421,5.372 8.421,12 l 0,17.986" /></g></g></g><g
       id="g248"><g
         clip-path="url(#clipPath252)"
         id="g250"><g
           transform="translate(118.0908,480.0005)"
           id="g256"><path
             id="path258"
             style="fill:#f4ac46;fill-opacity:1;fill-rule:nonzero;stroke:none"
             d="m 0,0 0,17.986 c 0,6.627 -3.771,12 -8.421,12 l -48.197,0 0.032,0 -1.812,0 c -2.326,0 -4.431,-1.343 -5.955,-3.515 L -64.55,26.186 -76.802,7.633 c -4.952,-7.466 -4.952,-7.682 0,-15.001 l 12.252,-18.568 0.197,-0.285 c 1.524,-2.172 3.629,-3.515 5.955,-3.515 l 1.812,0 0,-0.083 48.197,0 c 4.65,0 8.421,5.372 8.421,12 l 0,17.986" /></g></g></g><g
       id="g260"><g
         clip-path="url(#clipPath264)"
         id="g262"><g
           transform="translate(1178.9326,21.9346)"
           id="g268"><path
             id="path270"
             style="fill:#297373;fill-opacity:1;fill-rule:nonzero;stroke:none"
             d="m 0,0 -1070.229,0 0.032,0 -48.197,0 0,0.084 -1.813,0 c -2.325,0 -4.43,1.344 -5.954,3.515 l -0.197,0.285 -12.252,18.569 c -4.953,7.318 -4.953,7.533 0,15 l 12.252,18.553 0.197,0.285 c 1.524,2.172 3.629,3.515 5.954,3.515 l 1.813,0 -0.032,0 48.197,0 1070.229,0 0.031,-10e-4 48.198,0 -0.032,0 1.813,0 c 2.324,0 4.429,-1.344 5.953,-3.515 l 0.198,-0.285 12.251,-18.554 c 4.953,-7.466 4.953,-7.681 0,-15 L 56.161,3.883 55.963,3.598 C 54.439,1.426 52.334,0.083 50.01,0.083 l -1.813,0 L 48.197,0 0,0 Z" /></g></g></g><g
       transform="translate(918.2334,82.2363)"
       id="g272"><path
         id="path274"
         style="fill:#ffffff;fill-opacity:1;fill-rule:nonzero;stroke:#ffffff;stroke-width:1.41700006;stroke-linecap:round;stroke-linejoin:round;stroke-miterlimit:10;stroke-dasharray:none;stroke-opacity:1"
         d="M 0,0 16.079,-30.398 16.333,-30.3 32.412,0.099" /></g><path
       id="path276"
       style="fill:#ffffff;fill-opacity:1;fill-rule:nonzero;stroke:none"
       d="m 955.136,78.169 -6,0 0,8.333 6,0 0,-8.333 z" /><g
       id="g278"><g
         clip-path="url(#clipPath282)"
         id="g280"><g
           transform="translate(962.625,72.5527)"
           id="g286"><path
             id="path288"
             style="fill:#297373;fill-opacity:1;fill-rule:nonzero;stroke:none"
             d="m 0,0 c 0,-5.074 -3.353,-9.188 -7.49,-9.188 -4.136,0 -7.489,4.114 -7.489,9.188 0,5.074 3.353,9.188 7.489,9.188 C -3.353,9.188 0,5.074 0,0" /></g><path
           id="path290"
           style="fill:#ffffff;fill-opacity:1;fill-rule:nonzero;stroke:none"
           d="m 913.559,78.169 6,0 0,8.333 -6,0 0,-8.333 z" /><g
           transform="translate(906.0693,72.5527)"
           id="g292"><path
             id="path294"
             style="fill:#297373;fill-opacity:1;fill-rule:nonzero;stroke:none"
             d="m 0,0 c 0,-5.074 3.353,-9.188 7.49,-9.188 4.136,0 7.489,4.114 7.489,9.188 0,5.074 -3.353,9.188 -7.489,9.188 C 3.353,9.188 0,5.074 0,0" /></g></g></g><g
       id="g296"><g
         clip-path="url(#clipPath300)"
         id="g298"><g
           transform="translate(378.2534,618.3867)"
           id="g304"><path
             id="path306"
             style="fill:#292f36;fill-opacity:1;fill-rule:nonzero;stroke:none"
             d="m 0,0 c 0,-17.811 -14.438,-32.249 -32.248,-32.249 -17.811,0 -32.248,14.438 -32.248,32.249 0,17.81 14.437,32.248 32.248,32.248 C -14.438,32.248 0,17.81 0,0" /></g></g></g><text
       id="text308"
       style="font-variant:normal;font-weight:600;font-stretch:normal;font-size:19.05019951px;font-family:'Raleway SemiBold';-inkscape-font-specification:Raleway-SemiBold;writing-mode:lr-tb;fill:#ffffff;fill-opacity:1;fill-rule:nonzero;stroke:none"
       transform="matrix(1,0,0,-1,74.4316,44.9375)"><tspan
         id="tspan310"
         y="0"
         x="0 0 1106.1309 840.38049 883.05298 42.196194 87.38327 131.31303 176.63345 221.30617 356.73404 398.11108 441.64078 486.75165 528.0144 573.23956 616.80737 662.52783 705.29553 750.38739 795.91736 928.31622 969.00745 1016.9378 1061.2295 264.70251 308.7085">AAZTUBCDEFIJKLMNOPQRSVWXYGH</tspan></text>
</g></svg>