<?xml version="1.0" encoding="UTF-8" standalone="no"?>
<svg
   xmlns:dc="http://purl.org/dc/elements/1.1/"
   xmlns:cc="http://creativecommons.org/ns#"
   xmlns:rdf="http://www.w3.org/1999/02/22-rdf-syntax-ns#"
   xmlns:svg="http://www.w3.org/2000/svg"
   xmlns="http://www.w3.org/2000/svg"
   viewBox="0 0 100.685 74.756248"
   height="74.756248"
   width="100.685"
   xml:space="preserve"
   version="1.1"
   id="svg3355"><metadata
     id="metadata3361"><rdf:RDF><cc:Work
         rdf:about=""><dc:format>image/svg+xml</dc:format><dc:type
           rdf:resource="http://purl.org/dc/dcmitype/StillImage" /><dc:title></dc:title></cc:Work></rdf:RDF></metadata><defs
     id="defs3359"><clipPath
       id="clipPath3385"
       clipPathUnits="userSpaceOnUse"><path
         id="path3387"
         d="M 0,960 1280,960 1280,0 0,0 0,960 Z" /></clipPath><clipPath
       id="clipPath3413"
       clipPathUnits="userSpaceOnUse"><path
         id="path3415"
         d="M 0,960 1280,960 1280,0 0,0 0,960 Z" /></clipPath><clipPath
       id="clipPath3441"
       clipPathUnits="userSpaceOnUse"><path
         id="path3443"
         d="M 0,960 1280,960 1280,0 0,0 0,960 Z" /></clipPath><clipPath
       id="clipPath3469"
       clipPathUnits="userSpaceOnUse"><path
         id="path3471"
         d="M 0,960 1280,960 1280,0 0,0 0,960 Z" /></clipPath><clipPath
       id="clipPath3497"
       clipPathUnits="userSpaceOnUse"><path
         id="path3499"
         d="M 0,960 1280,960 1280,0 0,0 0,960 Z" /></clipPath><clipPath
       id="clipPath3513"
       clipPathUnits="userSpaceOnUse"><path
         id="path3515"
         d="M 0,960 1280,960 1280,0 0,0 0,960 Z" /></clipPath><clipPath
       id="clipPath3529"
       clipPathUnits="userSpaceOnUse"><path
         id="path3531"
         d="M 0,960 1280,960 1280,0 0,0 0,960 Z" /></clipPath><clipPath
       id="clipPath3549"
       clipPathUnits="userSpaceOnUse"><path
         id="path3551"
         d="M 0,960 1280,960 1280,0 0,0 0,960 Z" /></clipPath><clipPath
       id="clipPath3569"
       clipPathUnits="userSpaceOnUse"><path
         id="path3571"
         d="M 0,960 1280,960 1280,0 0,0 0,960 Z" /></clipPath><clipPath
       id="clipPath3581"
       clipPathUnits="userSpaceOnUse"><path
         id="path3583"
         d="M 0,960 1280,960 1280,0 0,0 0,960 Z" /></clipPath><clipPath
       id="clipPath3593"
       clipPathUnits="userSpaceOnUse"><path
         id="path3595"
         d="M 0,960 1280,960 1280,0 0,0 0,960 Z" /></clipPath><clipPath
       id="clipPath3605"
       clipPathUnits="userSpaceOnUse"><path
         id="path3607"
         d="M 0,960 1280,960 1280,0 0,0 0,960 Z" /></clipPath><clipPath
       id="clipPath3617"
       clipPathUnits="userSpaceOnUse"><path
         id="path3619"
         d="M 0,960 1280,960 1280,0 0,0 0,960 Z" /></clipPath><clipPath
       id="clipPath3635"
       clipPathUnits="userSpaceOnUse"><path
         id="path3637"
         d="M 0,960 1280,960 1280,0 0,0 0,960 Z" /></clipPath><clipPath
       id="clipPath3653"
       clipPathUnits="userSpaceOnUse"><path
         id="path3655"
         d="M 0,960 1280,960 1280,0 0,0 0,960 Z" /></clipPath></defs><g
     transform="matrix(1.25,0,0,-1.25,-46.9685,1161.0695)"
     id="g3363"><g
       id="g3381"><g
         clip-path="url(#clipPath3385)"
         id="g3383"><g
           transform="translate(118.0908,898.8696)"
           id="g3389"><path
             id="path3391"
             style="fill:#292f36;fill-opacity:1;fill-rule:nonzero;stroke:none"
             d="m 0,0 0,17.986 c 0,6.627 -3.771,12 -8.421,12 l -48.197,0 0.032,0 -1.812,0 c -2.326,0 -4.431,-1.343 -5.955,-3.515 L -64.55,26.186 -76.802,7.633 c -4.952,-7.466 -4.952,-7.682 0,-15 l 12.252,-18.569 0.197,-0.285 c 1.524,-2.172 3.629,-3.515 5.955,-3.515 l 1.812,0 0,-0.083 48.197,0 c 4.65,0 8.421,5.372 8.421,12 l 0,17.986" /></g><g
           transform="translate(86.5,910.1865)"
           id="g3393"><path
             id="path3395"
             style="fill:none;stroke:#ffffff;stroke-width:5.66900015;stroke-linecap:round;stroke-linejoin:round;stroke-miterlimit:10;stroke-dasharray:none;stroke-opacity:1"
             d="m 0,0 c 8.456,0 15.31,-6.854 15.31,-15.31 0,-8.455 -6.854,-15.309 -15.31,-15.309 -8.456,0 -15.31,6.854 -15.31,15.309" /></g><g
           transform="translate(86.5,910.1865)"
           id="g3397"><path
             id="path3399"
             style="fill:none;stroke:#ffffff;stroke-width:5.66900015;stroke-linecap:round;stroke-linejoin:round;stroke-miterlimit:10;stroke-dasharray:none;stroke-opacity:1"
             d="M 0,0 -10.877,0" /></g><g
           transform="translate(75.623,910.1865)"
           id="g3401"><path
             id="path3403"
             style="fill:none;stroke:#ffffff;stroke-width:5.66900015;stroke-linecap:round;stroke-linejoin:round;stroke-miterlimit:10;stroke-dasharray:none;stroke-opacity:1"
             d="M 0,0 9.295,9.296" /></g><g
           transform="translate(75.623,910.1865)"
           id="g3405"><path
             id="path3407"
             style="fill:none;stroke:#ffffff;stroke-width:5.66900015;stroke-linecap:round;stroke-linejoin:round;stroke-miterlimit:10;stroke-dasharray:none;stroke-opacity:1"
             d="M 0,0 9.138,-9.138" /></g></g></g><g
       id="g3409"><g
         clip-path="url(#clipPath3413)"
         id="g3411"><g
           transform="translate(118.0908,898.8696)"
           id="g3417"><path
             id="path3419"
             style="fill:#297373;fill-opacity:1;fill-rule:nonzero;stroke:none"
             d="m 0,0 0,17.986 c 0,6.627 -3.771,12 -8.421,12 l -48.197,0 0.032,0 -1.812,0 c -2.326,0 -4.431,-1.343 -5.955,-3.515 L -64.55,26.186 -76.802,7.633 c -4.952,-7.466 -4.952,-7.682 0,-15 l 12.252,-18.569 0.197,-0.285 c 1.524,-2.172 3.629,-3.515 5.955,-3.515 l 1.812,0 0,-0.083 48.197,0 c 4.65,0 8.421,5.372 8.421,12 l 0,17.986" /></g><g
           transform="translate(86.5,910.1865)"
           id="g3421"><path
             id="path3423"
             style="fill:none;stroke:#ffffff;stroke-width:5.66900015;stroke-linecap:round;stroke-linejoin:round;stroke-miterlimit:10;stroke-dasharray:none;stroke-opacity:1"
             d="m 0,0 c 8.456,0 15.31,-6.854 15.31,-15.31 0,-8.455 -6.854,-15.309 -15.31,-15.309 -8.456,0 -15.31,6.854 -15.31,15.309" /></g><g
           transform="translate(86.5,910.1865)"
           id="g3425"><path
             id="path3427"
             style="fill:none;stroke:#ffffff;stroke-width:5.66900015;stroke-linecap:round;stroke-linejoin:round;stroke-miterlimit:10;stroke-dasharray:none;stroke-opacity:1"
             d="M 0,0 -10.877,0" /></g><g
           transform="translate(75.623,910.1865)"
           id="g3429"><path
             id="path3431"
             style="fill:none;stroke:#ffffff;stroke-width:5.66900015;stroke-linecap:round;stroke-linejoin:round;stroke-miterlimit:10;stroke-dasharray:none;stroke-opacity:1"
             d="M 0,0 9.295,9.296" /></g><g
           transform="translate(75.623,910.1865)"
           id="g3433"><path
             id="path3435"
             style="fill:none;stroke:#ffffff;stroke-width:5.66900015;stroke-linecap:round;stroke-linejoin:round;stroke-miterlimit:10;stroke-dasharray:none;stroke-opacity:1"
             d="M 0,0 9.138,-9.138" /></g></g></g><g
       transform="translate(918.2334,82.2363)"
       id="g3625"><path
         id="path3627"
         style="fill:#ffffff;fill-opacity:1;fill-rule:nonzero;stroke:#ffffff;stroke-width:1.41700006;stroke-linecap:round;stroke-linejoin:round;stroke-miterlimit:10;stroke-dasharray:none;stroke-opacity:1"
         d="M 0,0 16.079,-30.398 16.333,-30.3 32.412,0.099" /></g><path
       id="path3629"
       style="fill:#ffffff;fill-opacity:1;fill-rule:nonzero;stroke:none"
       d="m 955.136,78.169 -6,0 0,8.333 6,0 0,-8.333 z" /><text
       id="text3661"
       style="font-variant:normal;font-weight:600;font-stretch:normal;font-size:19.05019951px;font-family:'Raleway SemiBold';-inkscape-font-specification:Raleway-SemiBold;writing-mode:lr-tb;fill:#ffffff;fill-opacity:1;fill-rule:nonzero;stroke:none"
       transform="matrix(1,0,0,-1,74.4316,44.9375)"><tspan
         id="tspan3663"
         y="0"
         x="0 0 1106.1309 840.38049 883.05298 42.196194 87.38327 131.31303 176.63345 221.30617 356.73404 398.11108 441.64078 486.75165 528.0144 573.23956 616.80737 662.52783 705.29553 750.38739 795.91736 928.31622 969.00745 1016.9378 1061.2295 264.70251 308.7085">AAZTUBCDEFIJKLMNOPQRSVWXYGH</tspan></text>
</g></svg>