<?xml version="1.0" encoding="utf-8"?>
<!-- Generator: Adobe Illustrator 19.0.0, SVG Export Plug-In . SVG Version: 6.00 Build 0)  -->
<svg version="1.1" id="Layer_1" xmlns="http://www.w3.org/2000/svg" xmlns:xlink="http://www.w3.org/1999/xlink" x="0px" y="0px"
	 viewBox="0 0 226.8 226.8" style="enable-background:new 0 0 226.8 226.8;" xml:space="preserve">
<style type="text/css">
	.st0{fill:#2B7473;}
	.st1{fill:none;stroke:#EEC642;stroke-linecap:round;stroke-linejoin:round;stroke-miterlimit:10;}
	.st2{fill:none;stroke:#FFFFFF;stroke-width:5.6693;stroke-linecap:round;stroke-linejoin:round;stroke-miterlimit:10;}
	.st3{fill:#F4AC47;}
	.st4{fill:none;stroke:#FFFFFF;stroke-width:2.8346;stroke-linecap:round;stroke-linejoin:round;stroke-miterlimit:10;}
</style>
<g id="XMLID_203_">
	<path id="XMLID_211_" class="st0" d="M155.1,113.1v-18c0-6.6-3.8-12-8.4-12H98.5h0h-1.8c-2.3,0-4.4,1.3-6,3.5l-0.2,0.3l-12.3,18.6
		c-5,7.5-5,7.7,0,15l12.3,18.6l0.2,0.3c1.5,2.2,3.6,3.5,6,3.5h1.8v0.1h48.2c4.7,0,8.4-5.4,8.4-12v-18"/>
	<path id="XMLID_210_" class="st1" d="M87.4,95.1"/>
	<path id="XMLID_209_" class="st1" d="M87.4,130.9"/>
	<g id="XMLID_204_">
		<path id="XMLID_208_" class="st2" d="M123.5,101.8c8.5,0,15.3,6.9,15.3,15.3c0,8.5-6.9,15.3-15.3,15.3s-15.3-6.9-15.3-15.3"/>
		<line id="XMLID_207_" class="st2" x1="123.5" y1="101.8" x2="112.6" y2="101.8"/>
		<line id="XMLID_206_" class="st2" x1="112.6" y1="101.8" x2="121.9" y2="92.5"/>
		<line id="XMLID_205_" class="st2" x1="112.6" y1="101.8" x2="121.8" y2="111"/>
	</g>
</g>
<circle id="XMLID_202_" class="st3" cx="149.6" cy="81.4" r="18.2"/>
<polyline id="XMLID_201_" class="st4" points="145.2,77.1 150.7,73.1 150.8,89.8 "/>
</svg>
