<?xml version="1.0" encoding="UTF-8" standalone="no"?>  
<svg xmlns:dc="http://purl.org/dc/elements/1.1/" xmlns:cc="http://creativecommons.org/ns#" xmlns:rdf="http://www.w3.org/1999/02/22-rdf-syntax-ns#" xmlns:svg="http://www.w3.org/2000/svg" xmlns="http://www.w3.org/2000/svg" viewBox="13 7 57 57" height="57" width="57" xml:space="preserve" version="1.1" id="svg2"> 
  <metadata id="metadata8"> 
    <rdf:RDF> 
      <cc:Work rdf:about=""> 
        <dc:format>image/svg+xml 
        </dc:format> 
        <dc:type rdf:resource="http://purl.org/dc/dcmitype/StillImage" /> 
        <dc:title> 
        </dc:title> 
      </cc:Work> 
    </rdf:RDF> 
  </metadata> 
  <defs id="defs6"> 
    <clipPath id="clipPath32" clipPathUnits="userSpaceOnUse"> 
      <path id="path34" d="M 0,960 1280,960 1280,0 0,0 0,960 Z" /> 
    </clipPath> 
    <clipPath id="clipPath60" clipPathUnits="userSpaceOnUse"> 
      <path id="path62" d="M 0,960 1280,960 1280,0 0,0 0,960 Z" /> 
    </clipPath> 
    <clipPath id="clipPath88" clipPathUnits="userSpaceOnUse"> 
      <path id="path90" d="M 0,960 1280,960 1280,0 0,0 0,960 Z" /> 
    </clipPath> 
    <clipPath id="clipPath116" clipPathUnits="userSpaceOnUse"> 
      <path id="path118" d="M 0,960 1280,960 1280,0 0,0 0,960 Z" /> 
    </clipPath> 
    <clipPath id="clipPath144" clipPathUnits="userSpaceOnUse"> 
      <path id="path146" d="M 0,960 1280,960 1280,0 0,0 0,960 Z" /> 
    </clipPath> 
    <clipPath id="clipPath160" clipPathUnits="userSpaceOnUse"> 
      <path id="path162" d="M 0,960 1280,960 1280,0 0,0 0,960 Z" /> 
    </clipPath> 
    <clipPath id="clipPath176" clipPathUnits="userSpaceOnUse"> 
      <path id="path178" d="M 0,960 1280,960 1280,0 0,0 0,960 Z" /> 
    </clipPath> 
    <clipPath id="clipPath196" clipPathUnits="userSpaceOnUse"> 
      <path id="path198" d="M 0,960 1280,960 1280,0 0,0 0,960 Z" /> 
    </clipPath> 
    <clipPath id="clipPath216" clipPathUnits="userSpaceOnUse"> 
      <path id="path218" d="M 0,960 1280,960 1280,0 0,0 0,960 Z" /> 
    </clipPath> 
    <clipPath id="clipPath228" clipPathUnits="userSpaceOnUse"> 
      <path id="path230" d="M 0,960 1280,960 1280,0 0,0 0,960 Z" /> 
    </clipPath> 
    <clipPath id="clipPath240" clipPathUnits="userSpaceOnUse"> 
      <path id="path242" d="M 0,960 1280,960 1280,0 0,0 0,960 Z" /> 
    </clipPath> 
    <clipPath id="clipPath252" clipPathUnits="userSpaceOnUse"> 
      <path id="path254" d="M 0,960 1280,960 1280,0 0,0 0,960 Z" /> 
    </clipPath> 
    <clipPath id="clipPath264" clipPathUnits="userSpaceOnUse"> 
      <path id="path266" d="M 0,960 1280,960 1280,0 0,0 0,960 Z" /> 
    </clipPath> 
    <clipPath id="clipPath282" clipPathUnits="userSpaceOnUse"> 
      <path id="path284" d="M 0,960 1280,960 1280,0 0,0 0,960 Z" /> 
    </clipPath> 
    <clipPath id="clipPath300" clipPathUnits="userSpaceOnUse"> 
      <path id="path302" d="M 0,960 1280,960 1280,0 0,0 0,960 Z" /> 
    </clipPath> 
  </defs> 
  <g transform="matrix(1.25,0,0,-1.25,-1464.3485,1161.1733)" id="g10"> 
    <g id="g112"> 
      <g clip-path="url(#clipPath116)" id="g114"> 
        <g transform="translate(1185.7344,881.7441)" id="g124"> 
          <path id="path126" style="fill:none;stroke:#ffffff;stroke-width:5.66900015;stroke-linecap:round;stroke-linejoin:round;stroke-miterlimit:10;stroke-dasharray:none;stroke-opacity:1" d="M 0,0 35.467,0" /> 
        </g> 
        <g transform="translate(1201.1963,881.7441)" id="g128"> 
          <path id="path130" style="fill:none;stroke:#ffffff;stroke-width:5.66900015;stroke-linecap:round;stroke-linejoin:round;stroke-miterlimit:10;stroke-dasharray:none;stroke-opacity:1" d="M 0,0 0,37.333" /> 
        </g> 
        <g transform="translate(1201.1963,919.0776)" id="g132"> 
          <path id="path134" style="fill:none;stroke:#ffffff;stroke-width:5.66900015;stroke-linecap:round;stroke-linejoin:round;stroke-miterlimit:10;stroke-dasharray:none;stroke-opacity:1" d="M 0,0 22.071,-10.667" /> 
        </g> 
        <g transform="translate(1223.2676,908.4111)" id="g136"> 
          <path id="path138" style="fill:none;stroke:#ffffff;stroke-width:5.66900015;stroke-linecap:round;stroke-linejoin:round;stroke-miterlimit:10;stroke-dasharray:none;stroke-opacity:1" d="M 0,0 -22.071,-8" /> 
        </g> 
      </g> 
    </g> 
   
  </g> 
</svg>