<?xml version="1.0" encoding="UTF-8" standalone="no"?> 
<svg xmlns:dc="http://purl.org/dc/elements/1.1/" xmlns:cc="http://creativecommons.org/ns#" xmlns:rdf="http://www.w3.org/1999/02/22-rdf-syntax-ns#" xmlns:svg="http://www.w3.org/2000/svg" xmlns="http://www.w3.org/2000/svg" viewBox="39 14 44 47" height="47" width="44" xml:space="preserve" version="1.1" id="svg2">
  <metadata id="metadata8">
    <rdf:RDF>
      <cc:Work rdf:about="">
        <dc:format>image/svg+xml
        </dc:format>
        <dc:type rdf:resource="http://purl.org/dc/dcmitype/StillImage" />
        <dc:title>
        </dc:title>
      </cc:Work>
    </rdf:RDF>
  </metadata>
  <defs id="defs6">
    <clipPath id="clipPath32" clipPathUnits="userSpaceOnUse">
      <path id="path34" d="M 0,960 1280,960 1280,0 0,0 0,960 Z" />
    </clipPath>
    <clipPath id="clipPath60" clipPathUnits="userSpaceOnUse">
      <path id="path62" d="M 0,960 1280,960 1280,0 0,0 0,960 Z" />
    </clipPath>
    <clipPath id="clipPath88" clipPathUnits="userSpaceOnUse">
      <path id="path90" d="M 0,960 1280,960 1280,0 0,0 0,960 Z" />
    </clipPath>
    <clipPath id="clipPath116" clipPathUnits="userSpaceOnUse">
      <path id="path118" d="M 0,960 1280,960 1280,0 0,0 0,960 Z" />
    </clipPath>
    <clipPath id="clipPath144" clipPathUnits="userSpaceOnUse">
      <path id="path146" d="M 0,960 1280,960 1280,0 0,0 0,960 Z" />
    </clipPath>
    <clipPath id="clipPath160" clipPathUnits="userSpaceOnUse">
      <path id="path162" d="M 0,960 1280,960 1280,0 0,0 0,960 Z" />
    </clipPath>
    <clipPath id="clipPath176" clipPathUnits="userSpaceOnUse">
      <path id="path178" d="M 0,960 1280,960 1280,0 0,0 0,960 Z" />
    </clipPath>
    <clipPath id="clipPath196" clipPathUnits="userSpaceOnUse">
      <path id="path198" d="M 0,960 1280,960 1280,0 0,0 0,960 Z" />
    </clipPath>
    <clipPath id="clipPath216" clipPathUnits="userSpaceOnUse">
      <path id="path218" d="M 0,960 1280,960 1280,0 0,0 0,960 Z" />
    </clipPath>
    <clipPath id="clipPath228" clipPathUnits="userSpaceOnUse">
      <path id="path230" d="M 0,960 1280,960 1280,0 0,0 0,960 Z" />
    </clipPath>
    <clipPath id="clipPath240" clipPathUnits="userSpaceOnUse">
      <path id="path242" d="M 0,960 1280,960 1280,0 0,0 0,960 Z" />
    </clipPath>
    <clipPath id="clipPath252" clipPathUnits="userSpaceOnUse">
      <path id="path254" d="M 0,960 1280,960 1280,0 0,0 0,960 Z" />
    </clipPath>
    <clipPath id="clipPath264" clipPathUnits="userSpaceOnUse">
      <path id="path266" d="M 0,960 1280,960 1280,0 0,0 0,960 Z" />
    </clipPath>
    <clipPath id="clipPath282" clipPathUnits="userSpaceOnUse">
      <path id="path284" d="M 0,960 1280,960 1280,0 0,0 0,960 Z" />
    </clipPath>
    <clipPath id="clipPath300" clipPathUnits="userSpaceOnUse">
      <path id="path302" d="M 0,960 1280,960 1280,0 0,0 0,960 Z" />
    </clipPath>
  </defs>
  <g transform="matrix(1.25,0,0,-1.25,-46.9685,1068.9491)" id="g10">
    <g id="g140">
      <g clip-path="url(#clipPath144)" id="g142">
        <g transform="translate(1185.7207,825.2612)" id="g152">
          <path id="path154" style="fill:none;stroke:#ffffff;stroke-width:5.66900015;stroke-linecap:round;stroke-linejoin:round;stroke-miterlimit:10;stroke-dasharray:none;stroke-opacity:1" d="M 0,0 13.873,-12.916 37.746,13.239" />
        </g>
      </g>
    </g>
    <g id="g156">
      <g clip-path="url(#clipPath160)" id="g158">
        <g transform="translate(1185.7207,825.2612)" id="g168">
          <path id="path170" style="fill:none;stroke:#ffffff;stroke-width:5.66900015;stroke-linecap:round;stroke-linejoin:round;stroke-miterlimit:10;stroke-dasharray:none;stroke-opacity:1" d="M 0,0 13.873,-12.916 37.746,13.239" />
        </g>
      </g>
    </g>
    <g id="g172">
      <g clip-path="url(#clipPath176)" id="g174">
        <g transform="translate(72.4336,840.1191)" id="g184">
          <path id="path186" style="fill:none;stroke:#ffffff;stroke-width:5.66900015;stroke-linecap:round;stroke-linejoin:round;stroke-miterlimit:10;stroke-dasharray:none;stroke-opacity:1" d="M 0,0 27.745,-30.398" />
        </g>
        <g transform="translate(72.4336,809.7207)" id="g188">
          <path id="path190" style="fill:none;stroke:#ffffff;stroke-width:5.66900015;stroke-linecap:round;stroke-linejoin:round;stroke-miterlimit:10;stroke-dasharray:none;stroke-opacity:1" d="M 0,0 27.745,30.398" />
        </g>
      </g>
    </g>
    <g id="g192">
      <g clip-path="url(#clipPath196)" id="g194">
        <g transform="translate(72.4336,840.1191)" id="g204">
          <path id="path206" style="fill:none;stroke:#ffffff;stroke-width:5.66900015;stroke-linecap:round;stroke-linejoin:round;stroke-miterlimit:10;stroke-dasharray:none;stroke-opacity:1" d="M 0,0 27.745,-30.398" />
        </g>
        <g transform="translate(72.4336,809.7207)" id="g208">
          <path id="path210" style="fill:none;stroke:#ffffff;stroke-width:5.66900015;stroke-linecap:round;stroke-linejoin:round;stroke-miterlimit:10;stroke-dasharray:none;stroke-opacity:1" d="M 0,0 27.745,30.398" />
        </g>
      </g>
    </g>
    <g transform="translate(918.2334,82.2363)" id="g272">
      <path id="path274" style="fill:#ffffff;fill-opacity:1;fill-rule:nonzero;stroke:#ffffff;stroke-width:1.41700006;stroke-linecap:round;stroke-linejoin:round;stroke-miterlimit:10;stroke-dasharray:none;stroke-opacity:1" d="M 0,0 16.079,-30.398 16.333,-30.3 32.412,0.099" />
    </g>
    <path id="path276" style="fill:#ffffff;fill-opacity:1;fill-rule:nonzero;stroke:none" d="m 955.136,78.169 -6,0 0,8.333 6,0 0,-8.333 z" />
    <g id="g278">
      <g clip-path="url(#clipPath282)" id="g280">
        <path id="path290" style="fill:#ffffff;fill-opacity:1;fill-rule:nonzero;stroke:none" d="m 913.559,78.169 6,0 0,8.333 -6,0 0,-8.333 z" />
        <g transform="translate(906.0693,72.5527)" id="g292">
          <path id="path294" style="fill:#297373;fill-opacity:1;fill-rule:nonzero;stroke:none" d="m 0,0 c 0,-5.074 3.353,-9.188 7.49,-9.188 4.136,0 7.489,4.114 7.489,9.188 0,5.074 -3.353,9.188 -7.489,9.188 C 3.353,9.188 0,5.074 0,0" />
        </g>
      </g>
    </g>
  </g>
</svg>