<?xml version="1.0" encoding="UTF-8" standalone="no"?>
<svg xmlns:dc="http://purl.org/dc/elements/1.1/" xmlns:cc="http://creativecommons.org/ns#" xmlns:rdf="http://www.w3.org/1999/02/22-rdf-syntax-ns#" xmlns:svg="http://www.w3.org/2000/svg" xmlns="http://www.w3.org/2000/svg" 
  viewBox="37 7 48 59" height="59" width="48" xml:space="preserve" version="1.1" id="svg3355">
  <metadata id="metadata3361">
    <rdf:RDF>
      <cc:Work rdf:about="">
        <dc:format>image/svg+xml
        </dc:format>
        <dc:type rdf:resource="http://purl.org/dc/dcmitype/StillImage" />
        <dc:title>
        </dc:title>
      </cc:Work>
    </rdf:RDF>
  </metadata>
  <defs id="defs3359">
    <clipPath id="clipPath3441" clipPathUnits="userSpaceOnUse"><path id="path3443" d="M 0,960 1280,960 1280,0 0,0 0,960 Z" /></clipPath>
    <clipPath id="clipPath3469" clipPathUnits="userSpaceOnUse"><path id="path3471" d="M 0,960 1280,960 1280,0 0,0 0,960 Z" /></clipPath>
    <clipPath id="clipPath3497" clipPathUnits="userSpaceOnUse"><path id="path3499" d="M 0,960 1280,960 1280,0 0,0 0,960 Z" /></clipPath>
    <clipPath id="clipPath3513" clipPathUnits="userSpaceOnUse"><path id="path3515" d="M 0,960 1280,960 1280,0 0,0 0,960 Z" /></clipPath>
    <clipPath id="clipPath3529" clipPathUnits="userSpaceOnUse"><path id="path3531" d="M 0,960 1280,960 1280,0 0,0 0,960 Z" /></clipPath>
    <clipPath id="clipPath3549" clipPathUnits="userSpaceOnUse"><path id="path3551" d="M 0,960 1280,960 1280,0 0,0 0,960 Z" /></clipPath>
    <clipPath id="clipPath3569" clipPathUnits="userSpaceOnUse"><path id="path3571" d="M 0,960 1280,960 1280,0 0,0 0,960 Z" /></clipPath>
    <clipPath id="clipPath3581" clipPathUnits="userSpaceOnUse"><path id="path3583" d="M 0,960 1280,960 1280,0 0,0 0,960 Z" /></clipPath>
    <clipPath id="clipPath3593" clipPathUnits="userSpaceOnUse"><path id="path3595" d="M 0,960 1280,960 1280,0 0,0 0,960 Z" /></clipPath>
    <clipPath id="clipPath3605" clipPathUnits="userSpaceOnUse"><path id="path3607" d="M 0,960 1280,960 1280,0 0,0 0,960 Z" /></clipPath>
    <clipPath id="clipPath3617" clipPathUnits="userSpaceOnUse"><path id="path3619" d="M 0,960 1280,960 1280,0 0,0 0,960 Z" /></clipPath>
    <clipPath id="clipPath3635" clipPathUnits="userSpaceOnUse"><path id="path3637" d="M 0,960 1280,960 1280,0 0,0 0,960 Z" /></clipPath>
    <clipPath id="clipPath3653" clipPathUnits="userSpaceOnUse"><path id="path3655" d="M 0,960 1280,960 1280,0 0,0 0,960 Z" /></clipPath>
  </defs>
  <g transform="matrix(1.25,0,0,-1.25,-46.9685,1161.0695)" id="g3363">
    <g id="g3381">
      <g clip-path="url(#clipPath3385)" id="g3383">
        <g transform="translate(86.5,910.1865)" id="g3393">
          <path id="path3395" style="fill:none;stroke:#ffffff;stroke-width:5.66900015;stroke-linecap:round;stroke-linejoin:round;stroke-miterlimit:10;stroke-dasharray:none;stroke-opacity:1" d="m 0,0 c 8.456,0 15.31,-6.854 15.31,-15.31 0,-8.455 -6.854,-15.309 -15.31,-15.309 -8.456,0 -15.31,6.854 -15.31,15.309" />
        </g>
        <g transform="translate(86.5,910.1865)" id="g3397">
          <path id="path3399" style="fill:none;stroke:#ffffff;stroke-width:5.66900015;stroke-linecap:round;stroke-linejoin:round;stroke-miterlimit:10;stroke-dasharray:none;stroke-opacity:1" d="M 0,0 -10.877,0" />
        </g>
        <g transform="translate(75.623,910.1865)" id="g3401">
          <path id="path3403" style="fill:none;stroke:#ffffff;stroke-width:5.66900015;stroke-linecap:round;stroke-linejoin:round;stroke-miterlimit:10;stroke-dasharray:none;stroke-opacity:1" d="M 0,0 9.295,9.296" />
        </g>
        <g transform="translate(75.623,910.1865)" id="g3405">
          <path id="path3407" style="fill:none;stroke:#ffffff;stroke-width:5.66900015;stroke-linecap:round;stroke-linejoin:round;stroke-miterlimit:10;stroke-dasharray:none;stroke-opacity:1" d="M 0,0 9.138,-9.138" />
        </g>
      </g>
    </g>
  </g>
</svg>